<?xml version="1.0" encoding="UTF-8"?>
<svg width="100px" height="100px" viewBox="0 0 100 100" version="1.1" xmlns="http://www.w3.org/2000/svg" xmlns:xlink="http://www.w3.org/1999/xlink">
    <!-- Generator: Sketch 55.2 (78181) - https://sketchapp.com -->
    <title>Stem Week Logo</title>
    <desc>Created with Sketch.</desc>
    <g id="Symbols" stroke="none" stroke-width="1" fill="none" fill-rule="evenodd">
        <g id="Sidebar" transform="translate(-26.000000, -140.000000)">
            <g id="Stem-Week-Logo">
                <g transform="translate(26.000000, 140.000000)">
                    <rect id="green-box" fill="#469470" x="0" y="0" width="100" height="100"></rect>
                    <rect id="blue-box" stroke="#FFFFFF" fill="#494E8F" x="5.5" y="5.5" width="91" height="91"></rect>
                    <g id="text" transform="translate(15.000000, 23.000000)" fill="#FFFFFF">
                        <path d="M44.7862779,17.7641489 C43.9915553,17.7641489 43.2858809,17.6922636 42.6689565,17.5486377 C42.0516592,17.4049394 41.4982023,17.2043983 41.0080637,16.9461464 C40.5176267,16.6884007 40.0826025,16.3833584 39.7021708,16.0306576 C39.3218137,15.6783185 38.9707664,15.2971963 38.6499239,14.887291 L39.3598494,14.3463434 C39.9850521,15.1496651 40.7077307,15.7847723 41.5279597,16.2519544 C42.3476666,16.7191364 43.4336235,16.9527274 44.7862779,16.9527274 C46.3243378,16.9527274 47.5161981,16.6184681 48.3616351,15.9495878 C49.2066992,15.2807075 49.6294922,14.3098222 49.6294922,13.0373658 C49.6294922,12.4011738 49.5280637,11.862902 49.3252065,11.4226227 C49.1224239,10.9823434 48.8434208,10.6150342 48.4884954,10.3214905 C48.1334208,10.0279469 47.7151025,9.7994182 47.2333168,9.63612145 C46.7515311,9.47318628 46.2316351,9.35067756 45.6737779,9.26917382 L43.6452065,8.94952294 C42.7490553,8.80199177 42.0097454,8.58033342 41.4264565,8.28490948 C40.8432422,7.98941322 40.382488,7.64481222 40.0444922,7.25067257 C39.7061981,6.85682219 39.4652307,6.4177 39.3218137,5.93323367 C39.1780237,5.44912893 39.1062779,4.95236833 39.1062779,4.44331347 C39.1062779,2.94956035 39.6134954,1.83765262 40.6277065,1.1069394 C41.6419922,0.376587781 43.0025521,0.0112311721 44.7102065,0.0112311721 C46.1468378,0.0112311721 47.3093137,0.236722444 48.1968137,0.687415711 C49.0843137,1.13847057 49.789988,1.73242818 50.3141351,2.47008404 L49.6294922,3.0356202 C49.1053452,2.31445312 48.4544124,1.76547805 47.6769922,1.38818878 C46.8992737,1.0112611 45.893341,0.822652618 44.6594922,0.822652618 C43.2054838,0.822652618 42.0730637,1.12039077 41.2616351,1.71586708 C40.4502065,2.31141571 40.0444922,3.21236833 40.0444922,4.41908653 C40.0444922,5.02266259 40.1415952,5.53634589 40.3360994,5.960498 C40.5303053,6.38465012 40.8008809,6.73966509 41.1475279,7.02474738 C41.4938767,7.31019127 41.9039166,7.53843067 42.3773494,7.70975486 C42.8504092,7.88107905 43.3746309,8.00749302 43.9494922,8.08892444 L45.9527811,8.40857531 C46.8655637,8.5565404 47.6175521,8.78239327 48.2094922,9.08591696 C48.8010595,9.38944065 49.2745668,9.74633591 49.6294922,10.1566751 C49.9844922,10.5670142 50.2293378,11.0184307 50.3648494,11.5109968 C50.4999134,12.0034905 50.5677811,12.5037224 50.5677811,13.0124157 C50.5677811,14.5718347 50.0519124,15.7536751 49.0209208,16.5577923 C47.9896309,17.3622711 46.5779092,17.7641489 44.7862779,17.7641489" id="Fill-6"></path>
                        <path d="M63.565763,17.7641489 C62.7710403,17.7641489 62.065366,17.6922636 61.4484416,17.5486377 C60.8311443,17.4049394 60.2776874,17.2043983 59.7875487,16.9461464 C59.2971118,16.6884007 58.8620876,16.3833584 58.4816559,16.0306576 C58.1012987,15.6783185 57.7502515,15.2971963 57.429409,14.887291 L58.1393345,14.3463434 C58.7645372,15.1496651 59.4872158,15.7847723 60.3074447,16.2519544 C61.1271517,16.7191364 62.2131086,16.9527274 63.565763,16.9527274 C65.1038229,16.9527274 66.2956832,16.6184681 67.1411202,15.9495878 C67.9861842,15.2807075 68.4089773,14.3098222 68.4089773,13.0373658 C68.4089773,12.4011738 68.3075487,11.862902 68.1046916,11.4226227 C67.901909,10.9823434 67.6229059,10.6150342 67.2679805,10.3214905 C66.9129059,10.0279469 66.4945876,9.7994182 66.0128019,9.63612145 C65.5310162,9.47318628 65.0111202,9.35067756 64.453263,9.26917382 L62.4246916,8.94952294 C61.5285403,8.80199177 60.7892305,8.58033342 60.2059416,8.28490948 C59.6227273,7.98941322 59.1619731,7.64481222 58.8239773,7.25067257 C58.4856832,6.85682219 58.2447158,6.4177 58.1012987,5.93323367 C57.9575088,5.44912893 57.885763,4.95236833 57.885763,4.44331347 C57.885763,2.94956035 58.3929805,1.83765262 59.4071916,1.1069394 C60.4214773,0.376587781 61.7820372,0.0112311721 63.4896916,0.0112311721 C64.9263229,0.0112311721 66.0887987,0.236722444 66.9762987,0.687415711 C67.8637987,1.13847057 68.5694731,1.73242818 69.0936202,2.47008404 L68.4089773,3.0356202 C67.8848303,2.31445312 67.2338975,1.76547805 66.4564773,1.38818878 C65.6787588,1.0112611 64.6728261,0.822652618 63.4389773,0.822652618 C61.9849689,0.822652618 60.8525487,1.12039077 60.0411202,1.71586708 C59.2296916,2.31141571 58.8239773,3.21236833 58.8239773,4.41908653 C58.8239773,5.02266259 58.9210803,5.53634589 59.1155845,5.960498 C59.3097903,6.38465012 59.580366,6.73966509 59.927013,7.02474738 C60.2733618,7.31019127 60.6834017,7.53843067 61.1568345,7.70975486 C61.6298943,7.88107905 62.154116,8.00749302 62.7289773,8.08892444 L64.7322662,8.40857531 C65.6450487,8.5565404 66.3970372,8.78239327 66.9889773,9.08591696 C67.5805445,9.38944065 68.0540519,9.74633591 68.4089773,10.1566751 C68.7639773,10.5670142 69.0088229,11.0184307 69.1443345,11.5109968 C69.2793985,12.0034905 69.3472662,12.5037224 69.3472662,13.0124157 C69.3472662,14.5718347 68.8313975,15.7536751 67.8004059,16.5577923 C66.769116,17.3622711 65.3573943,17.7641489 63.565763,17.7641489" id="Fill-8"></path>
                        <path d="M6.94845378,38.0134893 C5.42702521,38.0134893 4.12948529,37.7615292 3.05613235,37.2586214 C1.98248109,36.7552798 1.10758508,36.0887137 0.431668067,35.2595741 L2.43488235,33.243387 C3.09416807,33.9809706 3.80819538,34.526185 4.57756092,34.8784519 C5.34662815,35.2311526 6.17073529,35.4071776 7.04988235,35.4071776 C8.06416807,35.4071776 8.84151366,35.1842898 9.3827395,34.7382249 C9.92359244,34.292594 10.1941681,33.6483022 10.1941681,32.8057112 C10.1941681,32.1118808 9.99131092,31.5874943 9.58559664,31.232407 C9.17988235,30.8774643 8.4952395,30.6254319 7.53166807,30.4767436 L5.6552395,30.1816813 C4.01537815,29.9035416 2.84894958,29.3264344 2.15595378,28.4505042 C1.46258508,27.5745017 1.11631092,26.5391077 1.11631092,25.3438883 C1.11631092,23.7067985 1.66551681,22.4505416 2.76452521,21.5745392 C3.86323529,20.698609 5.38466387,20.2606439 7.32881092,20.2606439 C8.71472794,20.2606439 9.91091387,20.4718883 10.9168466,20.8941601 C11.9224065,21.3163596 12.7298824,21.8926713 13.3384538,22.6233845 L11.3859538,24.637402 C10.912521,24.0964544 10.3463109,23.6660828 9.68702521,23.3464319 C9.0277395,23.0268534 8.25002101,22.8670279 7.35416807,22.8670279 C5.42702521,22.8670279 4.46345378,23.6438085 4.46345378,25.1967187 C4.46345378,25.8575716 4.66631092,26.3616364 5.07202521,26.7085516 C5.4777395,27.0554668 6.17073529,27.3114045 7.15131092,27.4765815 L9.00238235,27.7962324 C10.5405168,28.0747337 11.6815137,28.6234195 12.4255966,29.4421451 C13.1693067,30.2607985 13.5413109,31.3085591 13.5413109,32.5855716 C13.5413109,33.3878085 13.397521,34.1208359 13.1102395,34.784003 C12.8225851,35.4470978 12.4002395,36.0202998 11.8423824,36.5032474 C11.2845252,36.986195 10.5955567,37.3584219 9.77577521,37.6205067 C8.95569538,37.8825192 8.01345378,38.0134893 6.94845378,38.0134893" id="Fill-10"></path>
                        <polygon id="Fill-12" points="27.5789879 23.2112167 27.5789879 37.7184486 24.2825593 37.7184486 24.2825593 23.2112167 18.9575593 23.2112167 18.9575593 20.5556556 32.9039879 20.5556556 32.9039879 23.2112167"></polygon>
                        <polygon id="Fill-14" points="39.2077214 37.7184197 39.2077214 20.555699 50.3902214 20.555699 50.3902214 23.2111878 42.5295071 23.2111878 42.5295071 27.6863 50.1112929 27.6863 50.1112929 30.3418611 42.5295071 30.3418611 42.5295071 35.0628586 50.3902214 35.0628586 50.3902214 37.7184197"></polygon>
                        <polygon id="Fill-16" points="66.9889997 29.7763756 67.1411425 24.8094928 66.9128537 24.8094928 63.489714 33.6367746 60.0664997 24.8094928 59.8382854 24.8094928 59.9904283 29.7763756 59.9904283 37.718398 57.0996394 37.718398 57.0996394 20.5556773 61.0553537 20.5556773 63.5150711 26.8749292 63.6925711 26.8749292 66.1775711 20.5556773 69.879714 20.5556773 69.879714 37.718398 66.9889997 37.718398"></polygon>
                        <polygon id="Fill-18" points="1.19240473 57.9677963 0.000619012605 40.8050756 2.86597616 40.8050756 3.4238333 50.6895918 3.65204758 54.7713599 3.88026187 54.7713599 5.65526187 44.7637564 8.7488333 44.7637564 10.5238333 54.7713599 10.7520476 54.7713599 10.9802619 50.6895918 11.538119 40.8050756 14.3020476 40.8050756 13.1102619 57.9677963 8.82490473 57.9677963 7.25276187 48.2553998 7.04990473 48.2553998 5.47776187 57.9677963"></polygon>
                        <polygon id="Fill-20" points="20.4282811 57.9677963 20.4282811 40.8050756 31.6107811 40.8050756 31.6107811 43.4605643 23.7500668 43.4605643 23.7500668 47.9356766 31.3318525 47.9356766 31.3318525 50.5912377 23.7500668 50.5912377 23.7500668 55.3122352 31.6107811 55.3122352 31.6107811 57.9677963"></polygon>
                        <polygon id="Fill-22" points="39.2077214 57.9677963 39.2077214 40.8050756 50.3902214 40.8050756 50.3902214 43.4605643 42.5295071 43.4605643 42.5295071 47.9356766 50.1112929 47.9356766 50.1112929 50.5912377 42.5295071 50.5912377 42.5295071 55.3122352 50.3902214 55.3122352 50.3902214 57.9677963"></polygon>
                        <polygon id="Fill-24" points="62.9064848 50.4437716 61.0554133 52.8042703 61.0554133 57.967789 57.7336276 57.967789 57.7336276 40.8050683 61.0554133 40.8050683 61.0554133 48.525794 61.2075562 48.525794 63.2614848 45.6735247 66.9889848 40.8050683 70.7419165 40.8050683 65.1886276 48.0340958 70.9954133 57.967789 67.2425562 57.967789"></polygon>
                        <polygon id="Fill-4" points="11.7451014 1.3597291 11.64661 1.3597291 7.18987342 11.6080577 2.73313681 1.3597291 2.6346454 1.3597291 2.6346454 17.5757576 1.79746835 17.5757576 1.79746835 0 3.02861106 0 7.16525056 9.56846401 7.26374198 9.56846401 11.3757586 0 12.5822785 0 12.5822785 17.5757576 11.7451014 17.5757576"></polygon>
                        <path d="M26.1130235,1.00720674 L25.9886927,1.00720674 L22.7809576,11.0792741 L29.3456247,11.0792741 L26.1130235,1.00720674 Z M31.4095162,17.5757576 L29.5694201,11.9102197 L22.5571622,11.9102197 L20.7170661,17.5757576 L19.7721519,17.5757576 L25.4665032,0 L26.6849452,0 L32.3544304,17.5757576 L31.4095162,17.5757576 Z" id="Fill-5"></path>
                    </g>
                </g>
            </g>
        </g>
    </g>
</svg>