<?xml version="1.0" encoding="UTF-8"?>
<svg width="150px" height="50px" viewBox="0 0 150 50" version="1.1" xmlns="http://www.w3.org/2000/svg" xmlns:xlink="http://www.w3.org/1999/xlink">
    <!-- Generator: Sketch 55.2 (78181) - https://sketchapp.com -->
    <title>CCRSNlogo_rgb</title>
    <desc>Created with Sketch.</desc>
    <defs>
        <polygon id="path-1" points="0.0285498489 0.0436363636 30.3444109 0.0436363636 30.3444109 30.4545455 0.0285498489 30.4545455"></polygon>
        <polygon id="path-3" points="0.353021148 0.400909091 19.0151057 0.400909091 19.0151057 19.1222727 0.353021148 19.1222727"></polygon>
        <path d="M0.195770393,4.59772727 L0.195770393,0.319545455 L4.46102719,0.319545455 C4.46102719,2.68227273 2.55135952,4.59772727 0.195770393,4.59772727 L0.195770393,4.59772727 Z" id="path-5"></path>
    </defs>
    <g id="Symbols" stroke="none" stroke-width="1" fill="none" fill-rule="evenodd">
        <g id="Sidebar" transform="translate(-1.000000, -41.000000)">
            <g id="CCRSNlogo_rgb">
                <g transform="translate(1.000000, 41.000000)">
                    <path d="M3.42462236,29.4190909 C2.44169184,29.4190909 1.66858006,29.12 1.10438066,28.5222727 C0.540634441,27.9240909 0.258761329,27.1031818 0.258761329,26.0590909 C0.258761329,25.0218182 0.53836858,24.2 1.09712991,23.5940909 C1.65634441,22.9881818 2.41268882,22.685 3.36661631,22.685 C3.79803625,22.685 4.17870091,22.7563636 4.50725076,22.8981818 C4.8358006,23.0404545 5.13534743,23.2604545 5.40634441,23.5577273 L5.40634441,22.8254545 L6.10694864,22.8254545 L6.10694864,25.0990909 L5.36782477,25.0990909 C5.32885196,24.5595455 5.13897281,24.1327273 4.79728097,23.8190909 C4.45558912,23.5059091 4.01238671,23.3490909 3.46767372,23.3490909 C2.75891239,23.3490909 2.19833837,23.5845455 1.78595166,24.0545455 C1.37356495,24.5245455 1.1673716,25.1672727 1.1673716,25.9813636 C1.1673716,26.8477273 1.37175227,27.5222727 1.78096677,28.0054545 C2.19018127,28.4886364 2.75891239,28.7304545 3.48761329,28.7304545 C3.97069486,28.7304545 4.36268882,28.5918182 4.66450151,28.3136364 C4.96540785,28.0354545 5.16299094,27.6286364 5.25634441,27.0918182 L6.17990937,27.0918182 C6.10558912,27.8513636 5.83413897,28.4290909 5.36510574,28.825 C4.89652568,29.2209091 4.24939577,29.4190909 3.42462236,29.4190909" id="Fill-1" fill="#242E4D"></path>
                    <path d="M14.5758308,29.2781818 L11.9705438,29.2781818 L11.9705438,28.6140909 L12.8936556,28.6140909 L12.3475831,27.1840909 L9.44773414,27.1840909 L8.84365559,28.6140909 L9.79577039,28.6140909 L9.79577039,29.2781818 L7.26797583,29.2781818 L7.26797583,28.6140909 L7.98308157,28.6140909 L10.457855,22.8254545 L11.4389728,22.8254545 L13.8607251,28.6140909 L14.5758308,28.6140909 L14.5758308,29.2781818 M10.9024169,23.7272727 L9.72326284,26.5195455 L12.0720544,26.5195455 L10.9024169,23.7272727" id="Fill-2" fill="#242E4D"></path>
                    <path d="M18.2451662,29.2781818 L15.3548338,29.2781818 L15.3548338,28.6140909 L16.239426,28.6140909 L16.239426,23.4604545 L15.3548338,23.4604545 L15.3548338,22.8254545 L18.1391239,22.8254545 C18.658006,22.8254545 19.0486405,22.8618182 19.3110272,22.935 C19.5738671,23.0072727 19.8031722,23.1290909 19.9998489,23.3009091 C20.1960725,23.475 20.344713,23.6809091 20.4444109,23.9186364 C20.5441088,24.1563636 20.5944109,24.4272727 20.5944109,24.7309091 C20.5944109,25.3672727 20.3959215,25.8440909 19.9998489,26.1609091 C19.6033233,26.4777273 19.0055891,26.6363636 18.2066465,26.6363636 L17.1095166,26.6363636 L17.1095166,28.6140909 L18.2451662,28.6140909 L18.2451662,29.2781818 M17.1095166,23.4604545 L17.1095166,25.9813636 L18.2066465,25.9813636 C18.7350453,25.9813636 19.1175227,25.8822727 19.3545317,25.6836364 C19.5910876,25.4845455 19.7098187,25.1672727 19.7098187,24.7309091 C19.7098187,24.2913636 19.58429,23.97 19.3327795,23.7659091 C19.0812689,23.5627273 18.6865559,23.4604545 18.1486405,23.4604545 L17.1095166,23.4604545" id="Fill-3" fill="#242E4D"></path>
                    <polyline id="Fill-4" fill="#242E4D" points="27.1880665 29.2781818 21.7504532 29.2781818 21.7504532 28.6140909 22.6350453 28.6140909 22.6350453 23.4604545 21.7504532 23.4604545 21.7504532 22.8254545 27.1880665 22.8254545 27.1880665 24.7695455 26.4629909 24.7695455 26.4629909 23.4604545 23.505136 23.4604545 23.505136 25.6663636 24.9598187 25.6663636 24.9598187 24.7213636 25.6413897 24.7213636 25.6413897 27.2613636 24.9598187 27.2613636 24.9598187 26.3209091 23.505136 26.3209091 23.505136 28.6140909 26.4629909 28.6140909 26.4629909 27.2422727 27.1880665 27.2422727 27.1880665 29.2781818"></polyline>
                    <path d="M34.9858006,29.4190909 C34.0028701,29.4190909 33.2297583,29.12 32.6655589,28.5222727 C32.1018127,27.9240909 31.8199396,27.1031818 31.8199396,26.0590909 C31.8199396,25.0218182 32.0995468,24.2 32.6583082,23.5940909 C33.2175227,22.9881818 33.9738671,22.685 34.9277946,22.685 C35.3592145,22.685 35.7398792,22.7563636 36.068429,22.8981818 C36.3969789,23.0404545 36.6965257,23.2604545 36.9675227,23.5577273 L36.9675227,22.8254545 L37.6681269,22.8254545 L37.6681269,25.0990909 L36.929003,25.0990909 C36.8900302,24.5595455 36.7001511,24.1327273 36.3584592,23.8190909 C36.0167674,23.5059091 35.573565,23.3490909 35.028852,23.3490909 C34.3200906,23.3490909 33.7595166,23.5845455 33.3471299,24.0545455 C32.9347432,24.5245455 32.7285498,25.1672727 32.7285498,25.9813636 C32.7285498,26.8477273 32.9329305,27.5222727 33.342145,28.0054545 C33.7513595,28.4886364 34.3200906,28.7304545 35.0487915,28.7304545 C35.5318731,28.7304545 35.9238671,28.5918182 36.2256798,28.3136364 C36.5265861,28.0354545 36.7241692,27.6286364 36.8175227,27.0918182 L37.7406344,27.0918182 C37.6663142,27.8513636 37.3953172,28.4290909 36.926284,28.825 C36.4577039,29.2209091 35.810574,29.4190909 34.9858006,29.4190909" id="Fill-5" fill="#242E4D"></path>
                    <path d="M42.4151057,29.4190909 C41.3904834,29.4190909 40.594713,29.1240909 40.0277946,28.5340909 C39.460423,27.9440909 39.1771903,27.1159091 39.1771903,26.0495455 C39.1771903,24.9895455 39.4613293,24.1636364 40.0300604,23.5722727 C40.5987915,22.9809091 41.3936556,22.685 42.4151057,22.685 C43.4333837,22.685 44.2287009,22.9809091 44.8006042,23.5722727 C45.3725076,24.1636364 45.6584592,24.9895455 45.6584592,26.0495455 C45.6584592,27.1131818 45.3725076,27.9404545 44.8006042,28.5318182 C44.2287009,29.1231818 43.4333837,29.4190909 42.4151057,29.4190909 M42.4151057,23.3490909 C41.6873112,23.3490909 41.1167674,23.5877273 40.7043807,24.0640909 C40.291994,24.5409091 40.0858006,25.1995455 40.0858006,26.04 C40.0858006,26.8836364 40.2910876,27.5413636 40.7021148,28.0127273 C41.1126888,28.485 41.6836858,28.7209091 42.4151057,28.7209091 C43.1433535,28.7209091 43.7129909,28.485 44.1240181,28.0127273 C44.5345921,27.5413636 44.7403323,26.8836364 44.7403323,26.04 C44.7403323,25.1995455 44.5345921,24.5409091 44.1240181,24.0640909 C43.7129909,23.5877273 43.1433535,23.3490909 42.4151057,23.3490909" id="Fill-6" fill="#242E4D"></path>
                    <path d="M49.6373112,29.2781818 L46.7854985,29.2781818 L46.7854985,28.6140909 L47.6700906,28.6140909 L47.6700906,23.4604545 L46.7854985,23.4604545 L46.7854985,22.8254545 L49.6373112,22.8254545 C50.7299094,22.8254545 51.5673716,23.1036364 52.1506042,23.6595455 C52.7338369,24.2154545 53.0252266,25.0122727 53.0252266,26.0495455 C53.0252266,27.0904545 52.7338369,27.8886364 52.1506042,28.4445455 C51.5673716,29.0004545 50.7299094,29.2781818 49.6373112,29.2781818 M48.5401813,23.4604545 L48.5401813,28.6140909 L49.6373112,28.6140909 C50.4172205,28.6140909 51.0244713,28.3886364 51.4595166,27.9377273 C51.8941088,27.4868182 52.1120846,26.8577273 52.1120846,26.0495455 C52.1120846,25.2318182 51.8950151,24.5959091 51.4617825,24.1418182 C51.0285498,23.6877273 50.4199396,23.4604545 49.6373112,23.4604545 L48.5401813,23.4604545" id="Fill-7" fill="#242E4D"></path>
                    <path d="M63.221148,29.2781818 L61.8480363,29.2781818 L61.1519637,27.1840909 C61.0654079,26.9090909 60.9303625,26.7177273 60.7486405,26.6095455 C60.5664653,26.5013636 60.2596677,26.4472727 59.8277946,26.4472727 L58.9676737,26.4472727 L58.9676737,28.6140909 L59.9247734,28.6140909 L59.9247734,29.2781818 L57.2129909,29.2781818 L57.2129909,28.6140909 L58.0975831,28.6140909 L58.0975831,23.4604545 L57.2129909,23.4604545 L57.2129909,22.8254545 L59.9777946,22.8254545 C60.5836858,22.8254545 61.0069486,22.8522727 61.2489426,22.9054545 C61.4904834,22.9590909 61.6966767,23.0468182 61.8675227,23.17 C62.0800604,23.325 62.2422961,23.5181818 62.3533233,23.7490909 C62.4643505,23.98 62.5200906,24.2409091 62.5200906,24.5318182 C62.5200906,24.9781818 62.3990937,25.3427273 62.1575529,25.6254545 C61.9155589,25.9081818 61.5643505,26.0931818 61.1039275,26.1804545 C61.3617825,26.2290909 61.5607251,26.3163636 61.7007553,26.4422727 C61.8407855,26.5681818 61.9531722,26.7654545 62.0365559,27.0336364 L62.539577,28.6140909 L63.221148,28.6140909 L63.221148,29.2781818 M58.9676737,23.4604545 L58.9676737,25.7927273 L59.9777946,25.7927273 C60.5093656,25.7927273 60.915861,25.6922727 61.1981873,25.4918182 C61.4800604,25.2913636 61.620997,25.0009091 61.620997,24.6195455 C61.620997,24.2122727 61.4922961,23.9172727 61.2344411,23.7345455 C60.9765861,23.5518182 60.557855,23.4604545 59.9777946,23.4604545 L58.9676737,23.4604545" id="Fill-8" fill="#242E4D"></path>
                    <polyline id="Fill-9" fill="#242E4D" points="69.4422961 29.2781818 64.0042296 29.2781818 64.0042296 28.6140909 64.8892749 28.6140909 64.8892749 23.4604545 64.0042296 23.4604545 64.0042296 22.8254545 69.4422961 22.8254545 69.4422961 24.7695455 68.7172205 24.7695455 68.7172205 23.4604545 65.7593656 23.4604545 65.7593656 25.6663636 67.2140483 25.6663636 67.2140483 24.7213636 67.8951662 24.7213636 67.8951662 27.2613636 67.2140483 27.2613636 67.2140483 26.3209091 65.7593656 26.3209091 65.7593656 28.6140909 68.7172205 28.6140909 68.7172205 27.2422727 69.4422961 27.2422727 69.4422961 29.2781818"></polyline>
                    <path d="M74.0347432,29.4190909 C73.1256798,29.4190909 72.3951662,29.1127273 71.8422961,28.5004545 C71.2898792,27.8877273 71.0138973,27.0740909 71.0138973,26.0590909 C71.0138973,25.0218182 71.2930514,24.2 71.8522659,23.5940909 C72.4110272,22.9881818 73.1678248,22.685 74.1212991,22.685 C74.5531722,22.685 74.9333837,22.7563636 75.2623867,22.8981818 C75.5909366,23.0404545 75.8904834,23.2604545 76.1610272,23.5577273 L76.1610272,22.8254545 L76.8620846,22.8254545 L76.8620846,25.0990909 L76.1225076,25.0990909 C76.0839879,24.5595455 75.8936556,24.1327273 75.5519637,23.8190909 C75.2107251,23.5059091 74.7675227,23.3490909 74.2228097,23.3490909 C73.5140483,23.3490909 72.9534743,23.5845455 72.5410876,24.0545455 C72.1287009,24.5245455 71.9225076,25.1672727 71.9225076,25.9813636 C71.9225076,26.8413636 72.1250755,27.5145455 72.5311178,28.0009091 C72.9371601,28.4872727 73.4932024,28.7304545 74.1987915,28.7304545 C74.7398792,28.7304545 75.1912387,28.5590909 75.5519637,28.2168182 C75.913142,27.8740909 76.0935045,27.4509091 76.0935045,26.9463636 L76.0935045,26.7281818 L75.0738671,26.7281818 L75.0738671,26.0495455 L77.8141994,26.0495455 L77.8141994,26.7281818 L76.9635952,26.7281818 L76.9635952,29.2781818 L76.0935045,29.2781818 L76.0935045,28.3863636 C75.8356495,28.7418182 75.5410876,29.0027273 75.2089124,29.1695455 C74.8771903,29.3359091 74.4856495,29.4190909 74.0347432,29.4190909" id="Fill-10" fill="#242E4D"></path>
                    <polyline id="Fill-11" fill="#242E4D" points="81.5750755 29.2781818 78.9362538 29.2781818 78.9362538 28.6140909 79.815861 28.6140909 79.815861 23.4604545 78.9362538 23.4604545 78.9362538 22.8254545 81.5750755 22.8254545 81.5750755 23.4604545 80.6954683 23.4604545 80.6954683 28.6140909 81.5750755 28.6140909 81.5750755 29.2781818"></polyline>
                    <path d="M86.0034743,29.4190909 C84.978852,29.4190909 84.1826284,29.1240909 83.61571,28.5340909 C83.0483384,27.9440909 82.7651057,27.1159091 82.7651057,26.0495455 C82.7651057,24.9895455 83.0492447,24.1636364 83.6179758,23.5722727 C84.1867069,22.9809091 84.981571,22.685 86.0034743,22.685 C87.0212991,22.685 87.8166163,22.9809091 88.3885196,23.5722727 C88.9608761,24.1636364 89.2463746,24.9895455 89.2463746,26.0495455 C89.2463746,27.1131818 88.9608761,27.9404545 88.3885196,28.5318182 C87.8166163,29.1231818 87.0212991,29.4190909 86.0034743,29.4190909 M86.0034743,23.3490909 C85.2752266,23.3490909 84.7046828,23.5877273 84.2922961,24.0640909 C83.8799094,24.5409091 83.673716,25.1995455 83.673716,26.04 C83.673716,26.8836364 83.879003,27.5413636 84.2900302,28.0127273 C84.7006042,28.485 85.2716012,28.7209091 86.0034743,28.7209091 C86.7312689,28.7209091 87.3013595,28.485 87.7119335,28.0127273 C88.1225076,27.5413636 88.3282477,26.8836364 88.3282477,26.04 C88.3282477,25.1995455 88.1225076,24.5409091 87.7119335,24.0640909 C87.3013595,23.5877273 86.7312689,23.3490909 86.0034743,23.3490909" id="Fill-12" fill="#242E4D"></path>
                    <polyline id="Fill-13" fill="#242E4D" points="96.4055891 29.2781818 95.2268882 29.2781818 92.0705438 23.7659091 92.0705438 28.6140909 93.0271903 28.6140909 93.0271903 29.2781818 90.3738671 29.2781818 90.3738671 28.6140909 91.2584592 28.6140909 91.2584592 23.4604545 90.3738671 23.4604545 90.3738671 22.8254545 92.5441088 22.8254545 95.6129909 28.1581818 95.6129909 23.4604545 94.6513595 23.4604545 94.6513595 22.8254545 97.2856495 22.8254545 97.2856495 23.4604545 96.4055891 23.4604545 96.4055891 29.2781818"></polyline>
                    <path d="M105.304985,29.2781818 L102.699698,29.2781818 L102.699698,28.6140909 L103.62281,28.6140909 L103.076737,27.1840909 L100.176888,27.1840909 L99.5723565,28.6140909 L100.524924,28.6140909 L100.524924,29.2781818 L97.9966767,29.2781818 L97.9966767,28.6140909 L98.7122356,28.6140909 L101.187009,22.8254545 L102.168127,22.8254545 L104.589879,28.6140909 L105.304985,28.6140909 L105.304985,29.2781818 M101.631571,23.7272727 L100.452417,26.5195455 L102.801208,26.5195455 L101.631571,23.7272727" id="Fill-14" fill="#242E4D"></path>
                    <polyline id="Fill-15" fill="#242E4D" points="111.231571 29.2781818 106.083988 29.2781818 106.083988 28.6140909 106.96858 28.6140909 106.96858 23.4604545 106.083988 23.4604545 106.083988 22.8254545 109.017825 22.8254545 109.017825 23.4604545 107.838671 23.4604545 107.838671 28.6140909 110.501964 28.6140909 110.501964 27.0722727 111.231571 27.0722727 111.231571 29.2781818"></polyline>
                    <path d="M7.83398792,37.8518182 L5.55090634,37.8518182 L5.55090634,37.3359091 C5.55090634,36.8118182 5.42809668,36.3590909 5.18202417,35.9772727 C4.93549849,35.5954545 4.52129909,35.405 3.93942598,35.405 C3.62583082,35.405 3.36888218,35.465 3.16722054,35.5845455 C2.96555891,35.7045455 2.8092145,35.8577273 2.69728097,36.045 C2.58534743,36.2322727 2.50694864,36.4486364 2.46208459,36.6959091 C2.41722054,36.9427273 2.39501511,37.2009091 2.39501511,37.4704545 C2.39501511,37.7845455 2.40589124,38.0509091 2.42854985,38.2672727 C2.45120846,38.4845455 2.50694864,38.6713636 2.59622356,38.8286364 C2.68595166,38.9859091 2.81646526,39.1245455 2.98821752,39.2440909 C3.15951662,39.3640909 3.39471299,39.4836364 3.69335347,39.6031818 L5.43942598,40.2995455 C5.94652568,40.4936364 6.35664653,40.7222727 6.67024169,40.9840909 C6.98338369,41.2459091 7.22628399,41.5531818 7.39758308,41.9045455 C7.56888218,42.2563636 7.68489426,42.6604545 7.74471299,43.1168182 C7.80407855,43.5736364 7.83398792,44.0936364 7.83398792,44.6772727 C7.83398792,45.3509091 7.76691843,45.9759091 7.63277946,46.5518182 C7.49864048,47.1281818 7.27794562,47.6222727 6.97250755,48.0336364 C6.66661631,48.4454545 6.25966767,48.7709091 5.75256798,49.0104545 C5.24501511,49.2495455 4.6255287,49.3695455 3.89456193,49.3695455 C3.34259819,49.3695455 2.82779456,49.2722727 2.35015106,49.0777273 C1.87250755,48.8831818 1.46238671,48.6172727 1.11888218,48.2804545 C0.775830816,47.9440909 0.50347432,47.5436364 0.302265861,47.0795455 C0.10060423,46.6159091 0,46.1140909 0,45.5754545 L0,44.7222727 L2.28308157,44.7222727 L2.28308157,45.4404545 C2.28308157,45.86 2.40589124,46.2377273 2.65241692,46.5740909 C2.89848943,46.9109091 3.31268882,47.0795455 3.89456193,47.0795455 C4.28247734,47.0795455 4.5847432,47.0236364 4.80135952,46.9109091 C5.01752266,46.7986364 5.18202417,46.6418182 5.29350453,46.4395455 C5.40589124,46.2377273 5.47613293,45.9872727 5.5060423,45.6872727 C5.53640483,45.3886364 5.55090634,45.0586364 5.55090634,44.7 C5.55090634,44.2809091 5.53640483,43.9363636 5.5060423,43.6668182 C5.47613293,43.3972727 5.41314199,43.1809091 5.31616314,43.0159091 C5.21873112,42.8513636 5.08459215,42.7168182 4.91329305,42.6118182 C4.74154079,42.5072727 4.51359517,42.395 4.23036254,42.275 L2.59622356,41.6013636 C1.61193353,41.1972727 0.951208459,40.6622727 0.615407855,39.9959091 C0.279607251,39.3304545 0.111933535,38.4959091 0.111933535,37.4927273 C0.111933535,36.8945455 0.193504532,36.3254545 0.358006042,35.7863636 C0.522054381,35.2477273 0.764501511,34.7840909 1.08534743,34.3945455 C1.40619335,34.0054545 1.81314199,33.695 2.30528701,33.4627273 C2.7978852,33.2309091 3.37205438,33.115 4.02915408,33.115 C4.59607251,33.115 5.11450151,33.2195455 5.58489426,33.4290909 C6.05483384,33.6390909 6.45770393,33.9154545 6.79305136,34.26 C7.12930514,34.6040909 7.38625378,34.9895455 7.56570997,35.4163636 C7.74471299,35.8427273 7.83398792,36.2804545 7.83398792,36.7295455 L7.83398792,37.8518182" id="Fill-16" fill="#DB393A"></path>
                    <polyline id="Fill-17" fill="#DB393A" points="11.5944109 35.405 8.95332326 35.405 8.95332326 33.2495455 16.5190332 33.2495455 16.5190332 35.405 13.8774924 35.405 13.8774924 49.235 11.5944109 49.235 11.5944109 35.405"></polyline>
                    <polyline id="Fill-18" fill="#DB393A" points="18.0851964 33.2495455 24.889577 33.2495455 24.889577 35.405 20.3682779 35.405 20.3682779 40.0972727 24.3077039 40.0972727 24.3077039 42.2527273 20.3682779 42.2527273 20.3682779 46.9445455 24.889577 46.9445455 24.889577 49.235 18.0851964 49.235 18.0851964 33.2495455"></polyline>
                    <polyline id="Fill-19" fill="#DB393A" points="26.9265861 33.2495455 29.1199396 33.2495455 32.0519637 41.7136364 32.097281 41.7136364 35.0066465 33.2495455 37.2226586 33.2495455 37.2226586 49.235 34.939577 49.235 34.939577 39.5136364 34.8951662 39.5136364 32.63429 46.3831818 31.4927492 46.3831818 29.2540785 39.5136364 29.2096677 39.5136364 29.2096677 49.235 26.9265861 49.235 26.9265861 33.2495455"></polyline>
                    <polyline id="Fill-20" fill="#DB393A" points="44.5645015 33.2495455 46.757855 33.2495455 50.2046828 42.8813636 50.2495468 42.8813636 50.2495468 33.2495455 52.5326284 33.2495455 52.5326284 49.235 50.3836858 49.235 46.891994 39.6254545 46.8475831 39.6254545 46.8475831 49.235 44.5645015 49.235 44.5645015 33.2495455"></polyline>
                    <polyline id="Fill-21" fill="#DB393A" points="55.1510574 33.2495455 61.9558912 33.2495455 61.9558912 35.405 57.4345921 35.405 57.4345921 40.0972727 61.3740181 40.0972727 61.3740181 42.2527273 57.4345921 42.2527273 57.4345921 46.9445455 61.9558912 46.9445455 61.9558912 49.235 55.1510574 49.235 55.1510574 33.2495455"></polyline>
                    <polyline id="Fill-22" fill="#DB393A" points="65.4924471 35.405 62.8513595 35.405 62.8513595 33.2495455 70.4170695 33.2495455 70.4170695 35.405 67.7755287 35.405 67.7755287 49.235 65.4924471 49.235 65.4924471 35.405"></polyline>
                    <polyline id="Fill-23" fill="#DB393A" points="81.4513595 49.235 79.3024169 49.235 77.5567976 38.8622727 77.5114804 38.8622727 75.7880665 49.235 73.639577 49.235 71.2667674 33.2495455 73.6839879 33.2495455 74.8259819 43.3972727 74.8703927 43.3972727 76.6613293 33.2495455 78.4074018 33.2495455 80.2649547 43.6445455 80.3098187 43.6445455 81.4064955 33.2495455 83.823716 33.2495455 81.4513595 49.235"></polyline>
                    <path d="M86.6216012,45.4631818 C86.6216012,46.0168182 86.7743202,46.425 87.0806647,46.6868182 C87.3861027,46.9486364 87.7481873,47.0795455 88.1664653,47.0795455 C88.5838369,47.0795455 88.9459215,46.9486364 89.2518127,46.6868182 C89.5577039,46.425 89.710423,46.0168182 89.710423,45.4631818 L89.710423,37.0213636 C89.710423,36.4677273 89.5577039,36.0595455 89.2518127,35.7977273 C88.9459215,35.5363636 88.5838369,35.405 88.1664653,35.405 C87.7481873,35.405 87.3861027,35.5363636 87.0806647,35.7977273 C86.7743202,36.0595455 86.6216012,36.4677273 86.6216012,37.0213636 L86.6216012,45.4631818 Z M84.3385196,37.0213636 C84.3385196,36.3781818 84.4504532,35.8090909 84.6743202,35.315 C84.8981873,34.8213636 85.1927492,34.4136364 85.5584592,34.0913636 C85.923716,33.77 86.33429,33.5268182 86.7897281,33.3618182 C87.244713,33.1972727 87.7033233,33.115 88.1664653,33.115 C88.6282477,33.115 89.0873112,33.1972727 89.5427492,33.3618182 C89.9977341,33.5268182 90.407855,33.77 90.7740181,34.0913636 C91.1392749,34.4136364 91.43429,34.8213636 91.6577039,35.315 C91.881571,35.8090909 91.9939577,36.3781818 91.9939577,37.0213636 L91.9939577,45.4631818 C91.9939577,46.1218182 91.881571,46.6940909 91.6577039,47.1804545 C91.43429,47.6668182 91.1392749,48.0709091 90.7740181,48.3927273 C90.407855,48.715 89.9977341,48.9577273 89.5427492,49.1222727 C89.0873112,49.2868182 88.6282477,49.3695455 88.1664653,49.3695455 C87.7033233,49.3695455 87.244713,49.2868182 86.7897281,49.1222727 C86.33429,48.9577273 85.923716,48.715 85.5584592,48.3927273 C85.1927492,48.0709091 84.8981873,47.6668182 84.6743202,47.1804545 C84.4504532,46.6940909 84.3385196,46.1218182 84.3385196,45.4631818 L84.3385196,37.0213636 L84.3385196,37.0213636 Z" id="Fill-24" fill="#DB393A"></path>
                    <path d="M95.9555891,40.3890909 L97.2534743,40.3890909 C97.6563444,40.3890909 97.9771903,40.3327273 98.2160121,40.2204545 C98.4543807,40.1086364 98.6374622,39.9477273 98.7643505,39.7377273 C98.8907855,39.5286364 98.9768882,39.2704545 99.0222054,38.9631818 C99.0666163,38.6568182 99.0892749,38.3009091 99.0892749,37.8968182 C99.0892749,37.4927273 99.0666163,37.1372727 99.0222054,36.8304545 C98.9768882,36.5236364 98.8835347,36.2618182 98.742145,36.045 C98.6003021,35.8277273 98.402719,35.6672727 98.1489426,35.5618182 C97.8951662,35.4572727 97.5593656,35.405 97.141994,35.405 L95.9555891,35.405 L95.9555891,40.3890909 Z M93.6720544,33.2495455 L97.3432024,33.2495455 C100.029154,33.2495455 101.372356,34.8136364 101.372356,37.9418182 C101.372356,38.87 101.226888,39.6668182 100.935952,40.3327273 C100.644562,40.9990909 100.133384,41.5340909 99.4024169,41.9381818 L101.864502,49.235 L99.447281,49.235 L97.3205438,42.4095455 L95.9555891,42.4095455 L95.9555891,49.235 L93.6720544,49.235 L93.6720544,33.2495455 L93.6720544,33.2495455 Z" id="Fill-25" fill="#DB393A"></path>
                    <polyline id="Fill-26" fill="#DB393A" points="103.767372 33.2495455 106.050453 33.2495455 106.050453 40.5463636 106.094864 40.5463636 109.430211 33.2495455 111.713293 33.2495455 108.601813 39.6481818 112.295166 49.235 109.877946 49.235 107.281269 42.14 106.050453 44.4527273 106.050453 49.235 103.767372 49.235 103.767372 33.2495455"></polyline>
                    <g id="Group-30" transform="translate(119.637462, 19.545455)">
                        <mask id="mask-2" fill="white">
                            <use xlink:href="#path-1"></use>
                        </mask>
                        <g id="Clip-28"></g>
                        <path d="M0.0285498489,0.388181818 L0.0285498489,30.4545455 C6.94214502,30.4545455 13.3114804,28.1286364 18.4119335,24.2213636 L0.0285498489,0.388181818" id="Fill-27" fill="#DB393A" mask="url(#mask-2)"></path>
                        <path d="M30.3475831,0.0436363636 L0.292296073,0.0436363636 L24.897281,17.4286364 C28.3300604,12.5022727 30.3475831,6.51090909 30.3475831,0.0436363636" id="Fill-29" fill="#AB639A" mask="url(#mask-2)"></path>
                    </g>
                    <path d="M119.929758,19.5890909 L138.368882,43.4936364 C140.72719,41.635 142.808157,39.4386364 144.54426,36.9809091 L119.929758,19.5890909" id="Fill-31" fill="#B2287E"></path>
                    <g id="Group-35" transform="translate(130.966767, 0.000000)">
                        <mask id="mask-4" fill="white">
                            <use xlink:href="#path-3"></use>
                        </mask>
                        <g id="Clip-33"></g>
                        <path d="M0.353021148,0.400909091 L0.353021148,19.1222727 L9.48172205,2.79727273 C6.7826284,1.27409091 3.67069486,0.400909091 0.353021148,0.400909091" id="Fill-32" fill="#3D4589" mask="url(#mask-4)"></path>
                        <path d="M14.6370091,7.07590909 L0.353021148,19.1222727 L19.0182779,19.1222727 C19.0182779,14.5331818 17.3691843,10.3318182 14.6370091,7.07590909" id="Fill-34" fill="#F9C767" mask="url(#mask-4)"></path>
                    </g>
                    <path d="M140.449849,2.795 L131.319789,19.1222727 L145.603776,7.07590909 C144.160876,5.35681818 142.41571,3.90318182 140.449849,2.795" id="Fill-36" fill="#E2603C"></path>
                    <path d="M130.896073,11.5945455 L130.896073,0.416363636 C128.132628,0.416363636 125.600302,1.40681818 123.631269,3.05272727 L130.896073,11.5945455" id="Fill-37" fill="#72C3E2"></path>
                    <path d="M123.314048,3.32818182 C120.997432,5.41409091 119.538671,8.43954545 119.538671,11.8077273 C119.538671,11.8677273 119.542296,11.9268182 119.543202,11.9863636 L130.678097,11.9863636 L123.314048,3.32818182" id="Fill-38" fill="#AB639A"></path>
                    <path d="M126.285045,12.3763636 L119.538671,12.3763636 C119.538671,16.1136364 122.559063,19.1431818 126.285045,19.1431818 L126.285045,12.3763636" id="Fill-39" fill="#91C565"></path>
                    <g id="Group-42" transform="translate(126.435045, 14.545455)">
                        <mask id="mask-6" fill="white">
                            <use xlink:href="#path-5"></use>
                        </mask>
                        <g id="Clip-41"></g>
                        <polygon id="Fill-40" fill="#494E8F" mask="url(#mask-6)" points="0.195770393 4.59772727 4.46102719 4.59772727 4.46102719 0.319545455 0.195770393 0.319545455"></polygon>
                    </g>
                    <polygon id="Fill-43" fill="#DB393A" points="126.630816 14.5068182 128.195166 14.5068182 128.195166 12.3763636 126.630816 12.3763636"></polygon>
                    <polygon id="Fill-44" fill="#72C3E2" points="128.534592 14.5068182 130.896073 14.5068182 130.896073 12.3763636 128.534592 12.3763636"></polygon>
                </g>
            </g>
        </g>
    </g>
</svg>